<svg xmlns="http://www.w3.org/2000/svg" xmlns:xlink="http://www.w3.org/1999/xlink" width="500" height="500" viewBox="0 0 500 500">
  <defs>
    <clipPath id="clip-appearance">
      <rect width="500" height="500"/>
    </clipPath>
  </defs>
  <g id="appearance" clip-path="url(#clip-appearance)">
    <g id="wedding" transform="translate(-640 -512)">
      <g id="Group_50" data-name="Group 50" transform="translate(643 515)">
        <circle id="Ellipse_209" data-name="Ellipse 209" cx="180" cy="180" r="180" transform="translate(61 19)" fill="#d4afb9"/>
        <path id="Path_232" data-name="Path 232" d="M648,739V654.671c0-26.112,10.354-48.339,24.822-56.661,12.712-7.319,25.5-14.3,37.476-24.327L736.178,552l25.88,21.684c11.977,10.03,24.764,17.008,37.476,24.327,14.469,8.322,24.822,30.549,24.822,56.661V739" transform="translate(-581 -242)" fill="#ffce56"/>
        <path id="Path_233" data-name="Path 233" d="M797.42,710.314,724.21,747,651,710.314V581.664C651,554.785,679.983,533,715.742,533h16.936c35.759,0,64.742,21.785,64.742,48.664Z" transform="translate(-569 -343)" fill="#c3c0c0"/>
        <path id="Path_234" data-name="Path 234" d="M672,741V621.76c0-17.232,10.413-31.9,24.965-37.391,12.785-4.834,25.645-9.434,37.691-16.054L760.685,554l26.029,14.315c12.047,6.62,24.906,11.22,37.691,16.054,14.552,5.488,24.965,20.159,24.965,37.391V741" transform="translate(-424.643 -244)" fill="#816982"/>
        <path id="Ellipse_109" data-name="Ellipse 109" d="M54.061,0c29.857,0,54.061,25.1,54.061,56.061s-24.2,56.061-54.061,56.061S0,87.023,0,56.061,24.2,0,54.061,0Z" transform="translate(101.15 233.16)" fill="#a0616a"/>
        <path id="Path_346" data-name="Path 346" d="M653,550.182h29.745c8.938,0,16.858-4.532,22.309-11.562,5.451,7.029,13.37,11.562,22.309,11.562h29.745" transform="translate(-550.195 -309.633)" fill="none" stroke="#c3c0c0" stroke-linecap="round" stroke-linejoin="round" stroke-width="10"/>
      </g>
    </g>
    <rect id="Rectangle_106" data-name="Rectangle 106" width="31" height="30" rx="10" transform="translate(324 296)" fill="#e7d1c4"/>
    <ellipse id="Ellipse_243" data-name="Ellipse 243" cx="65.239" cy="66.739" rx="65.239" ry="66.739" transform="translate(273.476 169.768)" fill="#2f2e41"/>
    <ellipse id="Ellipse_244" data-name="Ellipse 244" cx="61.239" cy="58.239" rx="61.239" ry="58.239" transform="translate(278.476 191.768)" fill="#e7d1c4"/>
    <path id="Path_370" data-name="Path 370" d="M739.909,386.61a28.917,28.917,0,0,0-8.985,7.582c-2.134,3.2-2.569,7.658.1,10.511,3.152,3.373,8.85,3.14,13.683,2.619l49.123-5.292L774.49,415.367l46.493-4.534c8.124-.792,17.487-2.3,21.446-8.794,4.645-7.625-1.267-17.091-8.333-22.982a73.544,73.544,0,0,0-51.069-16.169,71.615,71.615,0,0,0-47.994,22.657Z" transform="translate(-453.695 -201.614)" fill="#2f2e41"/>
    <rect id="Rectangle_107" data-name="Rectangle 107" width="6" height="78" transform="translate(336 326)" fill="#685569"/>
  </g>
</svg>
