<svg xmlns="http://www.w3.org/2000/svg" xmlns:xlink="http://www.w3.org/1999/xlink" width="500" height="500" viewBox="0 0 500 500">
  <defs>
    <clipPath id="clip-food">
      <rect width="500" height="500"/>
    </clipPath>
  </defs>
  <g id="food" clip-path="url(#clip-food)">
    <g id="tea" transform="translate(-679 -13)">
      <circle id="Ellipse_74" data-name="Ellipse 74" cx="185" cy="185" r="185" transform="translate(686 109)" fill="#d4afb9"/>
      <path id="Path_159" data-name="Path 159" d="M392.756,418c8.677,45.232,35.248,80.818,68.986,92.4h-16.1v12.052h79.864V510.4H509.4c33.738-11.582,60.309-47.168,68.986-92.4" transform="translate(299.244 -19.703)" fill="#c3c0c0"/>
      <ellipse id="Ellipse_156" data-name="Ellipse 156" cx="25.5" cy="25" rx="25.5" ry="25" transform="translate(729 344)" fill="#bf7e68"/>
      <ellipse id="Ellipse_157" data-name="Ellipse 157" cx="24" cy="24.5" rx="24" ry="24.5" transform="translate(761 323)" fill="#e66353"/>
      <ellipse id="Ellipse_158" data-name="Ellipse 158" cx="26" cy="27" rx="26" ry="27" transform="translate(789 345)" fill="#dce1e9"/>
      <path id="Path_160" data-name="Path 160" d="M455.6,442c0-18.229-13.116-33-29.3-33S397,423.775,397,442Z" transform="translate(298.902 -48.176)" fill="#77a052"/>
      <path id="Path_161" data-name="Path 161" d="M468,441.912C468,423.733,455.018,409,439,409s-29,14.733-29,32.912Z" transform="translate(345 -48.176)" fill="#ffce56"/>
      <path id="Path_162" data-name="Path 162" d="M477.755,441.988c0-18.221-12.256-32.988-27.377-32.988S423,423.768,423,441.988Z" transform="translate(392 -48.176)" fill="#e66353"/>
      <path id="Path_163" data-name="Path 163" d="M478.355,463.949c0-14.332-10.152-25.949-22.677-25.949S433,449.617,433,463.949Z" transform="translate(410.078 38.749)" fill="#e66353"/>
      <path id="Path_164" data-name="Path 164" d="M414.4,426.876l6.494.7,4.092-5.069,4.092,5.069,6.494-.7-.707,6.465,5.091,4.074-5.091,4.074.707,6.465-6.494-.7-4.092,5.069-4.092-5.069-6.494.7.707-6.465-5.091-4.074,5.091-4.074Z" transform="translate(359.765 -0.321)" fill="#ffce56"/>
      <path id="Path_165" data-name="Path 165" d="M421.675,424.156H396.914c-3.265,0-5.914-2.051-5.914-4.578h0c0-2.527,2.65-4.578,5.914-4.578H582.228c3.265,0,5.914,2.051,5.914,4.578h0c0,2.527-2.65,4.578-5.914,4.578H450.143" transform="translate(293 -20.889)" fill="#b9b6b6"/>
      <path id="Path_76" data-name="Path 76" d="M945.321,178C938.808,185.054,935,193.528,935,202.659c0,7.353,5.507,14.286,13.217,20.4,26.653,21.109,69.3,21.109,95.95,0,7.71-6.11,13.218-13.043,13.218-20.4,0-9.131-3.807-17.605-10.322-24.659Z" transform="translate(106.304 264.114)" fill="#816982"/>
      <path id="Path_77" data-name="Path 77" d="M968.814,165.46s-61.479-50.534-68.31,0,47.816,78.609,47.816,78.609" transform="translate(-45.814 140.546)" fill="none" stroke="#ffce56" stroke-linecap="round" stroke-linejoin="round" stroke-width="10"/>
      <path id="Path_78" data-name="Path 78" d="M1011.75,203.913V146h-72.5v58.02c-19.71,10.84-33.774,30.135-35.939,52.469a64.678,64.678,0,0,0,9.28,40.269,108.382,108.382,0,0,1,16.3,56.559v2.089h93.214v-2.065c0-20.23,6.39-39.778,16.83-57.465a64.6,64.6,0,0,0,9.063-33C1048,237.662,1033.4,215.708,1011.75,203.913Z" transform="translate(-20 147.593)" fill="#ffce56"/>
      <path id="Path_79" data-name="Path 79" d="M925,164s24.851,9.944,16.568,39.777" transform="translate(68.742 205.223)" fill="none" stroke="#fff" stroke-linecap="round" stroke-linejoin="round" stroke-width="5"/>
      <rect id="Rectangle_34" data-name="Rectangle 34" width="111" height="12" rx="6" transform="translate(1047 431)" fill="#816982"/>
      <path id="Path_335" data-name="Path 335" d="M679.657,338.568c-7.077-3.823-15.826.346-19.353,7.114-4.29,8.232-.734,18.128,4.268,25.164,5.2,7.311,12.253,13.346,15.722,21.8a36.432,36.432,0,0,1-14.213,44.867c-3.255,2.059-.248,7.253,3.028,5.181a42.6,42.6,0,0,0,15.2-55.584,59.444,59.444,0,0,0-7.808-11.035c-5.205-6.16-11.758-12.952-12.085-21.523a13.548,13.548,0,0,1,.231-3.32,11.671,11.671,0,0,1,.693-2.227,10.857,10.857,0,0,1,3.152-3.933,9.59,9.59,0,0,1,4.291-1.943,6.435,6.435,0,0,1,3.848.623c3.4,1.835,6.43-3.343,3.028-5.181Z" transform="translate(395.011 -23.007)" fill="#b4adad"/>
      <path id="Path_336" data-name="Path 336" d="M769.94,374.862a17.5,17.5,0,0,0-17.508,4.069,10.633,10.633,0,0,0-2.844,9.284c.572,3.636,2.867,6.865,5.358,9.468,4.873,5.092,11.693,8.385,15.779,14.231a17.86,17.86,0,0,1,3.3,8.468,16,16,0,0,1-1.464,8c-3.048,6.2-9.1,10.41-15.481,13.123-1.491.634-1.82,2.833-1.076,4.1a3.08,3.08,0,0,0,4.1,1.076c11.744-4.992,22.609-16.174,19.37-29.912-1.7-7.227-6.926-12.327-12.55-16.761a70.33,70.33,0,0,1-7.892-6.735c-1.945-2.065-3.965-4.886-3.608-7.685a4.251,4.251,0,0,1,1.348-2.528,11.628,11.628,0,0,1,2.972-1.975,11.18,11.18,0,0,1,8.6-.446,3.028,3.028,0,0,0,3.69-2.1,3.061,3.061,0,0,0-2.1-3.69Z" transform="translate(372.391 -23.007)" fill="#b4adad"/>
      <path id="Path_337" data-name="Path 337" d="M724.264,289.109a11.517,11.517,0,0,0-6.4-2.059,12.863,12.863,0,0,0-6.228,1.684,18.115,18.115,0,0,0-8.253,10.337c-3.032,9.709.923,20.173,6.418,28.724,2.778,4.323,6.013,8.426,8.81,12.74a51.484,51.484,0,0,1,6.162,13.072,53.139,53.139,0,0,1,.743,28.531c-2.4,9.39-7.452,18.687-16.046,25.165a2.229,2.229,0,0,0,0,3.547,3.43,3.43,0,0,0,4.243,0A48.484,48.484,0,0,0,729.524,389.1a58.041,58.041,0,0,0-.933-42.233,72.355,72.355,0,0,0-7.632-13.024c-5.639-7.971-11.643-16.033-12.459-25.525-.4-4.667.3-9.533,3.751-13.286-.189.205.152-.149.153-.151q.314-.314.651-.612a12.655,12.655,0,0,1,1.378-1.073c-.1.069-.37.217.114-.063.24-.139.486-.273.738-.4.205-.1.416-.19.626-.283q.187-.08.379-.15-.438.158.049,0c.235-.061,1.4-.271.752-.2q.323-.032.648-.035c.092,0,.9.033.506,0-.462-.042.366.069.372.07a6.8,6.8,0,0,1,.762.2c-.624-.209,1.024.566.643.319a3.556,3.556,0,0,0,4.243,0,2.241,2.241,0,0,0,0-3.547Z" transform="translate(384.075 1.421)" fill="#b4adad"/>
      <path id="Path_338" data-name="Path 338" d="M988.438,194.472a35.611,35.611,0,0,0,7.409-21.6c0-21.468-43.923-38.873-43.923-38.873S908,151.406,908,172.873a35.607,35.607,0,0,0,7.409,21.6Z" transform="translate(3.429 99.277)" fill="#816982"/>
      <circle id="Ellipse_236" data-name="Ellipse 236" cx="6" cy="6" r="6" transform="translate(949 223)" fill="#e66353"/>
      <path id="Path_339" data-name="Path 339" d="M479.689,0H0" transform="translate(684 503)" fill="none" stroke="#b9b6b6" stroke-linecap="round" stroke-width="2"/>
    </g>
  </g>
</svg>
