<svg xmlns="http://www.w3.org/2000/svg" xmlns:xlink="http://www.w3.org/1999/xlink" width="512" height="512" viewBox="0 0 512 512">
  <defs>
    <clipPath id="clip-Logo">
      <rect width="512" height="512"/>
    </clipPath>
  </defs>
  <g id="Logo" clip-path="url(#clip-Logo)">
    <g id="moon" transform="translate(160.023 105.581)">
      <g id="Group_10" data-name="Group 10" transform="translate(-162.869 -46.163)">
        <path id="Rectangle_13" data-name="Rectangle 13" d="M0,0H151a0,0,0,0,1,0,0V145.459A1.541,1.541,0,0,1,149.459,147H1.541A1.541,1.541,0,0,1,0,145.459V0A0,0,0,0,1,0,0Z" transform="translate(177.699 188)" fill="#ffce56"/>
        <path id="Path_36" data-name="Path 36" d="M1218.781,120.522c9.579-11.187,15.173-24.635,15.173-39.115,0-38.888-89.977-70.407-89.977-70.407S1054,42.519,1054,81.407c0,14.48,5.594,27.928,15.173,39.115Z" transform="translate(-891.132 73.7)" fill="#e66353"/>
        <line id="Line_49" data-name="Line 49" y1="12" transform="translate(253.699 72)" fill="none" stroke="#897239" stroke-linecap="round" stroke-linejoin="round" stroke-width="5"/>
        <path id="Path_371" data-name="Path 371" d="M6.08,0A12.621,12.621,0,0,0,1.939,17.5,12.966,12.966,0,0,0,19.665,21.6" transform="matrix(0.996, 0.087, -0.087, 0.996, 244.929, 46.163)" fill="none" stroke="#897239" stroke-linecap="round" stroke-width="5"/>
      </g>
      <rect id="Rectangle_109" data-name="Rectangle 109" width="168" height="96" rx="4" transform="translate(5.83 180.837)" fill="#816982"/>
      <path id="Path_373" data-name="Path 373" d="M338,506V416.74s-24.707-21.424-70-14.282v89.26S309.176,488.146,338,506Z" transform="translate(-250.17 -235.163)" fill="#dce1e9"/>
      <path id="Path_372" data-name="Path 372" d="M290,506V416.739s24.706-21.421,70-14.281v89.259S318.822,488.145,290,506Z" transform="translate(-198.17 -235.163)" fill="#dce1e9"/>
      <path id="Path_152" data-name="Path 152" d="M295,418.966A100.457,100.457,0,0,1,337.989,409" transform="translate(-212.957 -203.962) rotate(-3)" fill="none" stroke="#d4afb9" stroke-linecap="round" stroke-linejoin="round" stroke-width="2"/>
      <path id="Path_374" data-name="Path 374" d="M295,418.966A100.457,100.457,0,0,1,337.989,409" transform="translate(-212.957 -182.962) rotate(-3)" fill="none" stroke="#d4afb9" stroke-linecap="round" stroke-linejoin="round" stroke-width="2"/>
      <path id="Path_375" data-name="Path 375" d="M295,418.966A100.457,100.457,0,0,1,337.989,409" transform="translate(-212.957 -161.962) rotate(-3)" fill="none" stroke="#d4afb9" stroke-linecap="round" stroke-linejoin="round" stroke-width="2"/>
      <path id="Path_158" data-name="Path 158" d="M317.458,430.939A79.6,79.6,0,0,0,274,417" transform="matrix(0.999, -0.052, 0.052, 0.999, -264.684, -215.022)" fill="none" stroke="#d4afb9" stroke-linecap="round" stroke-linejoin="round" stroke-width="2"/>
      <path id="Path_376" data-name="Path 376" d="M317.458,430.939A79.6,79.6,0,0,0,274,417" transform="matrix(0.999, -0.052, 0.052, 0.999, -264.684, -192.026)" fill="none" stroke="#d4afb9" stroke-linecap="round" stroke-linejoin="round" stroke-width="2"/>
      <path id="Path_377" data-name="Path 377" d="M317.458,430.939A79.6,79.6,0,0,0,274,417" transform="matrix(0.999, -0.052, 0.052, 0.999, -264.684, -170.979)" fill="none" stroke="#d4afb9" stroke-linecap="round" stroke-linejoin="round" stroke-width="2"/>
    </g>
  </g>
</svg>
