<svg xmlns="http://www.w3.org/2000/svg" xmlns:xlink="http://www.w3.org/1999/xlink" width="500" height="500" viewBox="0 0 500 500">
  <defs>
    <clipPath id="clip-pray">
      <rect width="500" height="500"/>
    </clipPath>
  </defs>
  <g id="pray" clip-path="url(#clip-pray)">
    <g id="Component_1_1" data-name="Component 1 – 1" transform="translate(7 19.123)">
      <circle id="Ellipse_100" data-name="Ellipse 100" cx="206.5" cy="206.5" r="206.5" transform="translate(66 9.877)" fill="#d4afb9"/>
      <path id="Path_101" data-name="Path 101" d="M618.673,375.233H134L189.924,299H562.75Z" transform="translate(-134 96.174)" fill="#e66353"/>
      <path id="Path_105" data-name="Path 105" d="M185.663,337.348l34.373-29.376c5.2-4.444,6.338-12.994,2.558-19.094-3.285-5.287-9.3-7.107-14.343-4.338l-36.692,20.1Z" transform="translate(173.267 -70.867)" fill="#e7d1c4"/>
      <line id="Line_167" data-name="Line 167" x1="2" transform="translate(283 459.877)" fill="none" stroke="#4c241d" stroke-linecap="round" stroke-linejoin="round" stroke-width="2"/>
      <ellipse id="Ellipse_234" data-name="Ellipse 234" cx="62.239" cy="60.239" rx="62.239" ry="60.239" transform="translate(138.476 15.645)" fill="#e7d1c4"/>
      <path id="Path_299" data-name="Path 299" d="M0,0H43.347V38H0Z" transform="translate(168 121.877)" fill="#e7d1c4"/>
      <path id="Path_300" data-name="Path 300" d="M377.578,491.293H334.42l3.636-37.216a68.457,68.457,0,0,0-1.691-23.163l-15.249-61.555L303.028,296.34,257.807,272,224.1,469.242l-2.469,29.881c0,23.918,20.693,43.73,47.3,45.288l61.229,3.44-162.794,24.34-27.395,24.34H380.038c32.993,0,59.619-24.437,58.624-54.237C437.695,513.5,409.694,491.293,377.578,491.293Z" transform="translate(-90.192 -136.623)" fill="#816982"/>
      <path id="Path_301" data-name="Path 301" d="M314.267,337.6l-61.119,28.144L199.51,293.077c-9.765-13.223-26.184-17.832-36.673-10.293h0c-10.489,7.539-11.081,24.37-1.316,37.593l57.237,77.533c13.637,18.472,36.57,24.907,51.222,14.382l60.348-43.37Z" transform="translate(30.486 -103.692)" fill="#816982"/>
      <path id="Path_316" data-name="Path 316" d="M324.7,424.478a34.242,34.242,0,0,1-14.264-2.813c-2-.839-4.069-1.528-6.062-2.367-17.6-7.411-29.193-27.839-29.609-48.4a72.173,72.173,0,0,1,23.859-53.661,87.978,87.978,0,0,1,52.107-21.462C371,294.1,393.815,299.7,405.138,318.09a20.732,20.732,0,0,1,3.336,16.747,10.847,10.847,0,0,1-2.771,4.638c-5.057,4.9-10.1,1.217-15.254.891-7.086-.448-13.45,5.8-15.738,13.126s-1.281,15.385.566,22.854l.034.139a12.082,12.082,0,0,1-2.176,10.16,13.277,13.277,0,0,1-9.448,5.116c-7.793.671-16.354,1.089-18.8,0-4.786-2.143-11.215-1.668-14,3.084a17.907,17.907,0,0,0-1.77,5.57c-2.5,12.4-1.923,11.669-4.42,24.068Z" transform="translate(-153.061 -295.494)" fill="#2f2e41"/>
    </g>
  </g>
</svg>
